####
#
# OBJ File Generated by Meshlab
#
####
# Object link_1_convex_decimated.obj
#
# Vertices: 52
# Faces: 100
#
####
vn 0.856966 0.041411 -0.513707
v 0.085511 0.005974 0.000007
vn -0.910056 0.388060 0.145626
v -0.085508 -0.002008 0.223799
vn 0.015594 0.098413 -0.995024
v 0.002260 0.020397 -0.011206
vn -0.553074 0.645042 0.527286
v -0.064408 0.000032 0.259904
vn -0.571466 0.683427 -0.454262
v -0.055602 0.065262 -0.000051
vn 0.092057 0.976255 0.196093
v 0.010893 0.085817 0.008962
vn -0.722652 -0.224252 -0.653823
v -0.082056 -0.024558 -0.000002
vn -0.789301 0.442625 0.425544
v -0.075697 -0.000034 0.242884
vn 0.109731 -0.055451 -0.992413
v 0.021709 -0.013531 -0.010379
vn 0.467488 0.663713 -0.583902
v 0.046761 0.072774 0.000120
vn -0.324944 0.557735 0.763769
v -0.033955 0.000016 0.281989
vn 0.083383 0.978874 0.186691
v 0.000000 0.082155 0.023737
vn -0.904076 -0.089274 -0.417944
v -0.085415 -0.007769 -0.000007
vn -0.560166 0.320139 -0.764019
v -0.074909 0.041725 0.000018
vn 0.446520 -0.323373 0.834296
v 0.041205 -0.049669 0.274315
vn 0.278610 0.903008 -0.327036
v 0.024576 0.084436 0.000222
vn 0.847344 -0.132098 -0.514352
v 0.084674 -0.012471 0.000006
vn 0.360716 0.558740 0.746788
v 0.036054 -0.000005 0.280909
vn -0.093900 -0.053893 -0.994122
v -0.019515 -0.011481 -0.010919
vn -0.072678 0.982984 0.168704
v -0.011007 0.085803 0.008967
vn 0.346834 -0.614026 -0.708999
v 0.041169 -0.075655 0.000011
vn 0.148347 -0.678540 -0.719428
v 0.017408 -0.084262 0.000005
vn 0.633860 -0.528943 -0.564305
v 0.065453 -0.056094 0.000023
vn 0.982352 -0.166152 0.085899
v 0.084739 -0.018137 0.207485
vn 0.945176 -0.311078 0.099365
v 0.078247 -0.050688 0.209921
vn 0.606604 0.501615 -0.616778
v 0.064661 0.056162 0.000020
vn 0.811743 -0.261795 -0.522050
v 0.081636 -0.025601 -0.000000
vn 0.668585 -0.334626 -0.664093
v 0.076956 -0.037901 -0.000011
vn 0.071451 0.553756 0.829608
v 0.005790 0.000024 0.288346
vn -0.248949 0.920706 -0.300542
v -0.024491 0.084457 0.000301
vn -0.526594 0.835801 0.155356
v -0.044823 0.070769 0.013978
vn 0.039463 -0.995676 0.084092
v 0.009440 -0.118777 0.180971
vn 0.891162 0.405639 0.203191
v 0.085515 -0.003033 0.231412
vn 0.592835 0.243941 -0.767489
v 0.079390 0.032399 -0.000014
vn 0.620572 0.523657 0.583673
v 0.066658 -0.000009 0.257613
vn 0.876170 -0.481301 -0.025973
v 0.071227 -0.064904 0.144691
vn -0.154745 -0.371067 0.915622
v -0.014614 -0.046144 0.283241
vn -0.796042 -0.602161 -0.060985
v -0.061757 -0.084064 0.165203
vn -0.466847 -0.878875 -0.098145
v -0.038515 -0.107608 0.161978
vn -0.727271 -0.417961 -0.544414
v -0.073550 -0.044473 0.000002
vn -0.745595 0.151555 -0.648937
v -0.084183 0.016350 0.000016
vn -0.518456 -0.621633 -0.587176
v -0.053495 -0.068294 0.000039
vn -0.948486 -0.176061 0.263396
v -0.084838 -0.015834 0.220406
vn -0.740399 -0.295805 0.603580
v -0.057448 -0.048245 0.261594
vn 0.100832 -0.798963 0.592867
v 0.002318 -0.100561 0.241975
vn 0.577900 -0.814654 -0.048690
v 0.044546 -0.105886 0.175819
vn 0.672034 -0.664228 0.327369
v 0.055509 -0.087517 0.225383
vn -0.154679 -0.773463 -0.614678
v -0.017642 -0.084373 -0.000004
vn -0.647525 -0.740783 0.178751
v -0.049516 -0.102030 0.208404
vn -0.354148 -0.770175 0.530480
v -0.040676 -0.095038 0.237911
vn -0.924197 -0.369352 0.097155
v -0.075675 -0.059222 0.207453
vn 0.857277 -0.248315 0.451017
v 0.074007 -0.024276 0.246296
# 52 vertices, 0 vertices normals

f 12//12 20//20 11//11
f 30//30 12//12 6//6
f 30//30 20//20 12//12
f 5//5 3//3 14//14
f 19//19 14//14 3//3
f 23//23 21//21 9//9
f 3//3 34//34 9//9
f 10//10 26//26 3//3
f 16//16 10//10 3//3
f 27//27 28//28 9//9
f 17//17 9//9 1//1
f 36//36 28//28 27//27
f 29//29 18//18 6//6
f 29//29 6//6 12//12
f 41//41 13//13 2//2
f 13//13 19//19 7//7
f 19//19 13//13 41//41
f 19//19 3//3 9//9
f 30//30 16//16 3//3
f 20//20 30//30 4//4
f 22//22 48//48 19//19
f 22//22 19//19 9//9
f 22//22 21//21 46//46
f 22//22 9//9 21//21
f 33//33 26//26 10//10
f 35//35 16//16 6//6
f 16//16 33//33 10//10
f 16//16 30//30 6//6
f 27//27 9//9 17//17
f 24//24 17//17 1//1
f 28//28 23//23 9//9
f 28//28 36//36 23//23
f 25//25 36//36 27//27
f 29//29 12//12 11//11
f 32//32 22//22 46//46
f 40//40 19//19 42//42
f 14//14 41//41 2//2
f 14//14 19//19 41//41
f 14//14 2//2 5//5
f 30//30 31//31 8//8
f 4//4 11//11 20//20
f 30//30 3//3 5//5
f 30//30 5//5 31//31
f 46//46 21//21 23//23
f 32//32 48//48 22//22
f 1//1 9//9 34//34
f 1//1 34//34 33//33
f 52//52 24//24 33//33
f 34//34 3//3 26//26
f 35//35 6//6 18//18
f 47//47 36//36 25//25
f 24//24 1//1 33//33
f 25//25 27//27 17//17
f 23//23 36//36 46//46
f 15//15 35//35 18//18
f 15//15 52//52 35//35
f 15//15 18//18 29//29
f 42//42 19//19 48//48
f 49//49 38//38 39//39
f 32//32 39//39 48//48
f 2//2 13//13 43//43
f 39//39 38//38 42//42
f 7//7 19//19 40//40
f 38//38 40//40 42//42
f 44//44 8//8 43//43
f 2//2 31//31 5//5
f 15//15 47//47 52//52
f 44//44 51//51 49//49
f 26//26 33//33 34//34
f 35//35 33//33 16//16
f 37//37 45//45 15//15
f 32//32 45//45 50//50
f 25//25 52//52 47//47
f 47//47 46//46 36//36
f 25//25 17//17 24//24
f 15//15 29//29 37//37
f 42//42 48//48 39//39
f 49//49 39//39 32//32
f 51//51 7//7 40//40
f 13//13 7//7 51//51
f 8//8 4//4 30//30
f 8//8 44//44 4//4
f 2//2 8//8 31//31
f 43//43 8//8 2//2
f 44//44 37//37 11//11
f 49//49 32//32 50//50
f 49//49 50//50 44//44
f 43//43 51//51 44//44
f 37//37 50//50 45//45
f 25//25 24//24 52//52
f 15//15 45//45 47//47
f 37//37 29//29 11//11
f 51//51 40//40 38//38
f 49//49 51//51 38//38
f 52//52 33//33 35//35
f 43//43 13//13 51//51
f 11//11 4//4 44//44
f 37//37 44//44 50//50
f 47//47 32//32 46//46
f 47//47 45//45 32//32
# 100 faces, 0 coords texture

# End of File
