####
#
# OBJ File Generated by Meshlab
#
####
# Object link_2_convex_decimated.obj
#
# Vertices: 52
# Faces: 100
#
####
vn 0.141295 -0.138175 -0.980277
v 0.006740 0.199378 -0.069168
vn -0.465659 -0.010405 -0.884903
v -0.027890 0.198124 -0.061853
vn 0.795321 0.605736 -0.023424
v 0.068507 0.204494 -0.004325
vn 0.646807 0.728767 -0.224811
v 0.064631 0.204489 -0.022610
vn 0.606375 0.051072 0.793537
v 0.043544 0.001251 0.121935
vn 0.298439 -0.827149 -0.476192
v 0.026082 -0.082738 -0.000035
vn -0.632072 0.727200 -0.267703
v -0.062648 0.204474 -0.025948
vn -0.511223 -0.733432 -0.448028
v -0.053245 -0.069488 0.000339
vn 0.648708 0.549825 -0.526184
v 0.057322 0.204419 -0.037602
vn 0.149349 0.653151 0.742353
v 0.011281 0.204479 0.067346
vn 0.661943 -0.379931 -0.646130
v 0.074762 -0.043210 -0.000016
vn 0.933923 -0.304801 0.186773
v 0.080560 -0.028426 0.033298
vn 0.909950 -0.080181 -0.406892
v 0.087469 -0.015343 0.001649
vn -0.953098 -0.184276 0.240096
v -0.080273 -0.020207 0.041164
vn -0.106541 -0.778754 -0.618216
v -0.020991 -0.083732 -0.000006
vn -0.114838 0.766564 -0.631816
v -0.008119 0.204501 -0.070142
vn 0.837947 0.146235 0.525794
v 0.059587 0.038315 0.094140
vn 0.514156 0.615794 0.597028
v 0.044449 0.204486 0.053223
vn 0.221272 0.811999 0.540088
v 0.027135 0.204500 0.063294
vn 0.333692 0.267853 0.903828
v 0.028816 0.039217 0.121379
vn 0.146034 -0.977496 0.152237
v 0.020328 -0.082874 0.049902
vn 0.599564 0.211919 -0.771760
v 0.038593 0.201873 -0.056701
vn -0.396682 0.298722 0.867991
v -0.033739 0.056255 0.112930
vn -0.597093 0.410560 -0.689145
v -0.048623 0.204321 -0.047485
vn 0.524609 0.775675 0.350875
v 0.055926 0.204501 0.039943
vn 0.647985 -0.630823 -0.426824
v 0.060219 -0.062507 -0.000059
vn 0.612705 -0.735257 0.289809
v 0.051324 -0.063992 0.077237
vn 0.885081 -0.149403 0.440807
v 0.066822 -0.022393 0.086913
vn 0.477878 -0.413033 0.775265
v 0.038888 -0.041354 0.115499
vn 0.984815 0.038984 0.169172
v 0.084520 0.009684 0.024555
vn -0.607453 0.179088 0.773905
v -0.044105 0.024901 0.118336
vn -0.265922 0.300833 0.915852
v -0.022919 0.053433 0.118150
vn 0.045880 -0.003071 0.998942
v -0.000745 0.000227 0.134768
vn -0.803551 0.542141 0.245741
v -0.064754 0.204529 0.021204
vn -0.963354 0.074179 0.257771
v -0.073668 0.049850 0.057488
vn -0.931918 -0.077500 -0.354292
v -0.086596 -0.015508 0.001752
vn 0.170291 0.902409 -0.395802
v 0.024539 0.204501 -0.064745
vn -0.743509 -0.422096 -0.518681
v -0.073488 -0.044300 0.000019
vn 0.947135 0.056357 0.315848
v 0.072958 0.043606 0.062172
vn -0.242301 -0.958733 0.148732
v -0.018229 -0.083389 0.045635
vn -0.654096 -0.233152 0.719582
v -0.047586 -0.029646 0.113777
vn -0.555069 0.683810 0.473605
v -0.048514 0.204500 0.048414
vn -0.009308 0.284473 0.958639
v -0.005860 0.055341 0.120861
vn -0.886627 0.074675 0.456416
v -0.065171 0.024138 0.089839
vn -0.794489 0.607032 -0.017311
v -0.067686 0.204498 -0.002673
vn -0.082602 0.818157 0.569031
v -0.005877 0.204500 0.068167
vn 0.806640 0.537525 0.245763
v 0.066401 0.204571 0.018952
vn -0.336605 0.154602 0.928868
v -0.035079 0.022244 0.123508
vn -0.329313 0.651252 0.683684
v -0.030996 0.204500 0.060800
vn -0.988109 0.059084 0.141950
v -0.084054 0.007640 0.021063
vn -0.077399 -0.771838 0.631091
v -0.009976 -0.063811 0.110613
vn -0.684479 -0.678431 0.266871
v -0.053902 -0.062498 0.070904
# 52 vertices, 0 vertices normals

f 13//13 37//37 22//22
f 13//13 11//11 37//37
f 16//16 1//1 15//15
f 13//13 9//9 4//4
f 43//43 10//10 46//46
f 18//18 19//19 20//20
f 19//19 10//10 20//20
f 26//26 6//6 1//1
f 26//26 1//1 11//11
f 37//37 11//11 1//1
f 12//12 26//26 11//11
f 22//22 9//9 13//13
f 3//3 30//30 13//13
f 36//36 14//14 50//50
f 24//24 36//36 7//7
f 15//15 1//1 6//6
f 8//8 38//38 16//16
f 38//38 36//36 2//2
f 38//38 2//2 16//16
f 3//3 13//13 4//4
f 25//25 17//17 47//47
f 17//17 25//25 18//18
f 5//5 17//17 18//18
f 5//5 18//18 20//20
f 33//33 20//20 10//10
f 33//33 10//10 43//43
f 27//27 26//26 12//12
f 12//12 11//11 13//13
f 28//28 17//17 5//5
f 30//30 3//3 47//47
f 12//12 28//28 27//27
f 31//31 23//23 49//49
f 44//44 34//34 35//35
f 36//36 50//50 45//45
f 36//36 24//24 2//2
f 16//16 2//2 24//24
f 16//16 24//24 7//7
f 37//37 9//9 22//22
f 37//37 4//4 9//9
f 37//37 3//3 4//4
f 37//37 47//47 3//3
f 37//37 25//25 47//47
f 37//37 18//18 25//25
f 37//37 16//16 46//46
f 37//37 46//46 10//10
f 8//8 16//16 15//15
f 30//30 12//12 13//13
f 39//39 47//47 17//17
f 10//10 19//19 37//37
f 27//27 6//6 26//26
f 27//27 21//21 6//6
f 21//21 15//15 6//6
f 51//51 27//27 29//29
f 21//21 27//27 51//51
f 40//40 51//51 52//52
f 28//28 39//39 17//17
f 39//39 12//12 30//30
f 39//39 30//30 47//47
f 34//34 44//44 42//42
f 34//34 42//42 16//16
f 44//44 31//31 42//42
f 42//42 31//31 49//49
f 42//42 49//49 16//16
f 48//48 23//23 31//31
f 43//43 46//46 32//32
f 43//43 32//32 48//48
f 43//43 48//48 33//33
f 48//48 32//32 23//23
f 33//33 29//29 5//5
f 35//35 34//34 50//50
f 14//14 36//36 38//38
f 45//45 7//7 36//36
f 45//45 16//16 7//7
f 19//19 18//18 37//37
f 33//33 5//5 20//20
f 21//21 51//51 40//40
f 40//40 15//15 21//21
f 28//28 29//29 27//27
f 28//28 5//5 29//29
f 41//41 31//31 44//44
f 14//14 44//44 35//35
f 46//46 49//49 32//32
f 46//46 16//16 49//49
f 49//49 23//23 32//32
f 33//33 51//51 29//29
f 51//51 33//33 41//41
f 45//45 50//50 34//34
f 45//45 34//34 16//16
f 52//52 14//14 38//38
f 52//52 38//38 8//8
f 52//52 8//8 40//40
f 51//51 41//41 52//52
f 12//12 39//39 28//28
f 52//52 41//41 14//14
f 33//33 48//48 41//41
f 35//35 50//50 14//14
f 16//16 37//37 1//1
f 40//40 8//8 15//15
f 44//44 14//14 41//41
f 31//31 41//41 48//48
# 100 faces, 0 coords texture

# End of File
