####
#
# OBJ File Generated by Meshlab
#
####
# Object link_7_convex_decimated.obj
#
# Vertices: 52
# Faces: 100
#
####
vn 0.113406 0.176491 -0.977747
v 0.012783 0.021697 -0.009901
vn 0.989507 0.027677 0.141810
v 0.049982 0.003194 0.016879
vn -0.122920 0.886700 0.445706
v -0.008051 0.046315 0.031485
vn -0.209773 0.325310 -0.922046
v -0.012503 0.021652 -0.009899
vn -0.049673 -0.268205 -0.962080
v -0.004593 -0.025165 -0.010069
vn 0.795304 -0.297083 -0.528425
v 0.048854 -0.019837 0.000232
vn 0.174600 0.110114 -0.978463
v 0.021175 0.013642 -0.009901
vn 0.851730 0.284337 -0.440124
v 0.048684 0.019862 0.000162
vn -0.330370 0.797267 -0.505194
v -0.011605 0.051237 0.000177
vn 0.428074 -0.757808 -0.492422
v 0.023753 -0.046944 0.000329
vn 0.201208 -0.205874 -0.957670
v 0.015422 -0.020212 -0.009911
vn 0.566005 0.517772 -0.641522
v 0.038901 0.034997 0.000294
vn 0.261538 -0.330867 0.906711
v 0.021076 -0.023617 0.045010
vn -0.198011 -0.826719 0.526620
v -0.011352 -0.046279 0.031867
vn -0.802888 -0.544358 0.242993
v -0.041507 -0.024933 0.026360
vn -0.220843 -0.010811 -0.975250
v -0.023939 -0.000193 -0.010373
vn -0.148995 0.097202 -0.984049
v -0.021026 0.013813 -0.009948
vn 0.211286 -0.834643 0.508654
v 0.013207 -0.045652 0.031022
vn 0.703048 -0.656918 -0.272364
v 0.038200 -0.034568 0.007231
vn 0.234854 0.298183 0.925165
v 0.018118 0.024820 0.045000
vn 0.402217 0.830206 -0.385978
v 0.025174 0.046183 0.000313
vn 0.171420 0.840400 0.514144
v 0.012673 0.045566 0.032227
vn 0.206082 -0.014234 -0.978431
v 0.025626 -0.002131 -0.009913
vn 0.028680 0.275965 -0.960740
v -0.000557 0.025334 -0.009909
vn -0.798387 -0.267505 0.539462
v -0.044729 -0.015414 0.032763
vn -0.853520 0.131825 -0.504108
v -0.053598 0.006563 0.000761
vn -0.825575 0.247057 0.507335
v -0.044462 0.016213 0.031342
vn -0.463141 -0.002002 0.886283
v -0.031134 -0.003037 0.045045
vn 0.102983 0.368863 0.923761
v 0.006276 0.030020 0.045000
vn -0.089866 0.429302 0.898679
v -0.006287 0.030017 0.045000
vn -0.317851 0.271147 0.908543
v -0.022268 0.021898 0.045004
vn -0.867383 -0.282839 -0.409449
v -0.049541 -0.016777 0.000247
vn -0.385632 -0.847665 -0.364350
v -0.019886 -0.048566 0.000207
vn 0.016513 -0.931602 -0.363104
v -0.000476 -0.052714 0.000340
vn 0.607445 0.511215 0.608005
v 0.033548 0.030146 0.033639
vn 0.463293 0.708431 0.532432
v 0.022978 0.040989 0.032261
vn 0.831804 0.265204 0.487615
v 0.044493 0.016311 0.031231
vn 0.399244 -0.025464 0.916491
v 0.031076 -0.001764 0.044974
vn -0.565209 -0.689972 0.452191
v -0.026601 -0.038344 0.032000
vn 0.001275 -0.463748 0.885966
v 0.000000 -0.030725 0.045011
vn -0.631429 0.666088 -0.397021
v -0.041543 0.032664 0.000048
vn -0.480856 0.799120 0.360812
v -0.023755 0.041214 0.030921
vn -0.062492 -0.049861 -0.996799
v -0.021268 -0.014206 -0.009901
vn 0.815365 -0.322433 0.480850
v 0.045017 -0.019264 0.031006
vn 0.739393 0.643292 0.198679
v 0.038502 0.031679 0.016909
vn 0.353772 0.168261 0.920073
v 0.028711 0.011349 0.045000
vn -0.134291 -0.151832 0.979241
v -0.023007 -0.020585 0.045000
vn -0.669513 0.537140 0.513062
v -0.037167 0.028237 0.032349
vn -0.620641 -0.594167 -0.511634
v -0.039489 -0.034776 0.000203
vn 0.103820 0.947628 -0.302030
v 0.005150 0.051523 0.004977
vn -0.967630 -0.036997 0.249646
v -0.049121 0.001362 0.022718
vn 0.529686 -0.724890 0.440417
v 0.025014 -0.039847 0.031555
# 52 vertices, 0 vertices normals

f 35//35 45//45 36//36
f 36//36 22//22 29//29
f 44//44 37//37 38//38
f 21//21 36//36 45//45
f 12//12 21//21 45//45
f 18//18 40//40 14//14
f 28//28 27//27 25//25
f 22//22 30//30 29//29
f 22//22 3//3 30//30
f 42//42 31//31 30//30
f 33//33 5//5 34//34
f 11//11 10//10 5//5
f 11//11 23//23 6//6
f 10//10 19//19 52//52
f 19//19 44//44 52//52
f 52//52 18//18 10//10
f 35//35 36//36 20//20
f 21//21 1//1 24//24
f 50//50 3//3 22//22
f 9//9 3//3 50//50
f 1//1 12//12 7//7
f 46//46 38//38 37//37
f 20//20 46//46 35//35
f 2//2 37//37 44//44
f 7//7 8//8 23//23
f 25//25 47//47 28//28
f 25//25 51//51 32//32
f 9//9 24//24 4//4
f 41//41 42//42 4//4
f 41//41 4//4 17//17
f 17//17 16//16 26//26
f 17//17 26//26 41//41
f 41//41 48//48 42//42
f 28//28 31//31 27//27
f 42//42 48//48 31//31
f 32//32 26//26 16//16
f 43//43 5//5 49//49
f 34//34 5//5 10//10
f 10//10 11//11 19//19
f 19//19 11//11 6//6
f 21//21 12//12 1//1
f 50//50 21//21 24//24
f 37//37 35//35 46//46
f 2//2 44//44 6//6
f 45//45 35//35 37//37
f 2//2 8//8 37//37
f 40//40 18//18 13//13
f 39//39 47//47 25//25
f 27//27 41//41 26//26
f 25//25 32//32 15//15
f 9//9 4//4 42//42
f 36//36 29//29 20//20
f 42//42 30//30 3//3
f 43//43 32//32 16//16
f 43//43 16//16 17//17
f 43//43 17//17 4//4
f 43//43 4//4 24//24
f 43//43 24//24 1//1
f 43//43 1//1 7//7
f 43//43 7//7 23//23
f 43//43 23//23 11//11
f 43//43 11//11 5//5
f 49//49 32//32 43//43
f 49//49 39//39 15//15
f 51//51 26//26 32//32
f 33//33 34//34 14//14
f 19//19 6//6 44//44
f 36//36 21//21 22//22
f 8//8 2//2 6//6
f 6//6 23//23 8//8
f 8//8 7//7 12//12
f 18//18 52//52 13//13
f 25//25 15//15 39//39
f 47//47 39//39 14//14
f 47//47 14//14 40//40
f 47//47 40//40 13//13
f 47//47 13//13 38//38
f 47//47 38//38 46//46
f 47//47 46//46 20//20
f 47//47 20//20 29//29
f 47//47 29//29 30//30
f 47//47 30//30 31//31
f 47//47 31//31 28//28
f 26//26 51//51 27//27
f 25//25 27//27 51//51
f 27//27 31//31 48//48
f 32//32 49//49 15//15
f 33//33 49//49 5//5
f 14//14 34//34 18//18
f 10//10 18//18 34//34
f 22//22 21//21 50//50
f 12//12 45//45 8//8
f 37//37 8//8 45//45
f 50//50 24//24 9//9
f 44//44 38//38 13//13
f 52//52 44//44 13//13
f 3//3 9//9 42//42
f 48//48 41//41 27//27
f 33//33 39//39 49//49
f 14//14 39//39 33//33
# 100 faces, 0 coords texture

# End of File
