####
#
# OBJ File Generated by Meshlab
#
####
# Object link_3_convex_decimated.obj
#
# Vertices: 52
# Faces: 100
#
####
vn -0.338217 0.718258 -0.608042
v -0.029504 0.061266 0.000000
vn 0.161847 0.769074 -0.618329
v 0.015261 0.066291 0.000028
vn -0.753486 0.374779 -0.540184
v -0.061266 0.029504 0.000000
vn -0.134490 0.759184 0.636829
v -0.004079 0.102147 0.253432
vn 0.489639 0.626374 -0.606555
v 0.042397 0.053165 0.000000
vn 0.839331 0.207047 -0.502648
v 0.066295 0.015131 0.000000
vn 0.907748 -0.392970 0.146862
v 0.067934 0.002189 0.234287
vn -0.073172 0.149917 -0.985987
v -0.010538 0.021642 -0.010817
vn 0.004072 0.702459 -0.711712
v 0.000754 0.068041 0.000046
vn 0.534270 -0.746374 -0.396841
v 0.044587 -0.053724 0.000149
vn -0.155248 0.687644 -0.709256
v -0.015131 0.066295 0.000000
vn -0.449993 0.564212 -0.692221
v -0.042397 0.053165 0.000000
vn 0.265697 0.536757 -0.800810
v 0.029504 0.061266 0.000000
vn -0.820940 0.157869 -0.548758
v -0.066941 0.012703 -0.000130
vn 0.816788 -0.300666 -0.492400
v 0.065264 -0.021229 0.000058
vn 0.139830 0.009754 -0.990128
v 0.022479 -0.004848 -0.011466
vn -0.669164 -0.543677 -0.506590
v -0.055370 -0.040740 -0.000058
vn -0.575458 0.458993 -0.676885
v -0.053165 0.042397 0.000000
vn 0.865048 -0.501620 0.008283
v 0.061322 -0.029915 0.036216
vn 0.459568 -0.883719 0.088537
v 0.026347 -0.063553 0.034888
vn -0.869758 -0.492676 0.028142
v -0.060556 -0.031337 0.043601
vn -0.131572 -0.079830 -0.988087
v -0.021451 -0.017900 -0.010281
vn -0.656925 0.753769 -0.016803
v -0.039295 0.105067 0.197673
vn -0.052925 0.997545 -0.045861
v -0.014007 0.116867 0.200005
vn -0.002454 -0.454169 0.890912
v -0.002097 0.000502 0.283666
vn -0.735231 0.515573 0.440022
v -0.044112 0.089203 0.245078
vn 0.571346 0.454282 -0.683514
v 0.053199 0.042362 0.000002
vn 0.380311 0.921512 0.078606
v 0.032814 0.107553 0.192093
vn -0.404543 -0.443329 0.799878
v -0.028466 0.000460 0.278127
vn 0.277331 -0.694808 0.663573
v 0.028644 0.000440 0.278138
vn 0.228615 0.207258 0.951199
v 0.019374 0.050863 0.278487
vn 0.722759 -0.687627 0.069197
v 0.051105 -0.045045 0.033793
vn 0.669879 -0.300683 0.678861
v 0.047279 0.000585 0.266092
vn -0.844902 -0.194433 -0.498333
v -0.067182 -0.012158 0.000056
vn -0.442775 -0.880566 0.168979
v -0.039858 -0.038536 0.119327
vn -0.622506 -0.779319 0.071748
v -0.045906 -0.050281 0.033747
vn 0.872531 0.023798 -0.487979
v 0.068369 -0.000504 0.000097
vn -0.556926 -0.649376 0.517826
v -0.051866 0.000405 0.260996
vn -0.756684 0.163924 0.632897
v -0.055055 0.034801 0.256434
vn -0.287691 0.240726 0.926976
v -0.017844 0.046512 0.279927
vn 0.694072 -0.585427 0.418975
v 0.058151 0.000500 0.251276
vn 0.946294 0.192920 0.259440
v 0.061984 0.051316 0.232153
vn 0.622870 0.593272 0.509961
v 0.041971 0.083050 0.260788
vn 0.847184 0.485106 0.216684
v 0.054089 0.078167 0.210294
vn -0.926527 -0.319106 0.199297
v -0.068623 0.003883 0.240706
vn 0.231134 -0.968129 0.096450
v 0.016719 -0.066450 0.041200
vn 0.692980 0.715452 0.088924
v 0.041100 0.102672 0.197200
vn -0.113599 -0.971309 0.208934
v -0.004855 -0.068713 0.045715
vn -0.955489 0.260791 0.137944
v -0.061190 0.054125 0.220266
vn -0.188859 -0.859261 -0.475397
v -0.012649 -0.069676 0.000138
vn -0.919237 0.393511 0.012393
v -0.052569 0.081898 0.204955
vn 0.760611 0.366949 -0.535555
v 0.061267 0.029509 0.000002
# 52 vertices, 0 vertices normals

f 5//5 27//27 16//16
f 9//9 2//2 8//8
f 47//47 27//27 5//5
f 11//11 8//8 1//1
f 11//11 9//9 8//8
f 11//11 24//24 9//9
f 12//12 1//1 8//8
f 13//13 5//5 16//16
f 13//13 16//16 8//8
f 13//13 8//8 2//2
f 14//14 3//3 8//8
f 22//22 34//34 14//14
f 22//22 14//14 8//8
f 50//50 16//16 10//10
f 52//52 16//16 27//27
f 52//52 44//44 6//6
f 16//16 52//52 6//6
f 16//16 6//6 37//37
f 19//19 32//32 10//10
f 19//19 10//10 15//15
f 17//17 22//22 50//50
f 18//18 8//8 3//3
f 18//18 12//12 8//8
f 28//28 47//47 5//5
f 28//28 5//5 13//13
f 23//23 12//12 18//18
f 22//22 16//16 50//50
f 37//37 15//15 16//16
f 16//16 15//15 10//10
f 28//28 13//13 2//2
f 31//31 30//30 33//33
f 7//7 32//32 19//19
f 15//15 7//7 19//19
f 34//34 21//21 45//45
f 36//36 45//45 21//21
f 36//36 21//21 17//17
f 22//22 17//17 34//34
f 22//22 8//8 16//16
f 51//51 3//3 14//14
f 24//24 11//11 1//1
f 23//23 1//1 12//12
f 38//38 35//35 48//48
f 38//38 48//48 29//29
f 48//48 35//35 50//50
f 41//41 46//46 20//20
f 25//25 31//31 40//40
f 29//29 48//48 25//25
f 29//29 25//25 40//40
f 43//43 31//31 33//33
f 42//42 6//6 44//44
f 32//32 7//7 20//20
f 37//37 7//7 15//15
f 21//21 34//34 17//17
f 45//45 14//14 34//34
f 36//36 17//17 50//50
f 46//46 30//30 48//48
f 51//51 23//23 3//3
f 23//23 24//24 1//1
f 39//39 40//40 26//26
f 39//39 26//26 49//49
f 26//26 40//40 4//4
f 24//24 28//28 2//2
f 24//24 2//2 9//9
f 33//33 46//46 41//41
f 33//33 41//41 42//42
f 33//33 42//42 43//43
f 41//41 20//20 7//7
f 41//41 7//7 42//42
f 30//30 25//25 48//48
f 30//30 31//31 25//25
f 42//42 7//7 37//37
f 37//37 6//6 42//42
f 38//38 45//45 35//35
f 38//38 39//39 45//45
f 36//36 35//35 45//45
f 36//36 50//50 35//35
f 46//46 33//33 30//30
f 23//23 18//18 3//3
f 26//26 4//4 23//23
f 10//10 32//32 20//20
f 39//39 38//38 29//29
f 39//39 29//29 40//40
f 43//43 24//24 4//4
f 4//4 31//31 43//43
f 31//31 4//4 40//40
f 47//47 52//52 27//27
f 44//44 28//28 43//43
f 42//42 44//44 43//43
f 39//39 49//49 45//45
f 49//49 51//51 14//14
f 24//24 23//23 4//4
f 23//23 51//51 26//26
f 43//43 28//28 24//24
f 44//44 47//47 28//28
f 45//45 49//49 14//14
f 51//51 49//49 26//26
f 52//52 47//47 44//44
f 50//50 10//10 46//46
f 50//50 46//46 48//48
f 46//46 10//10 20//20
# 100 faces, 0 coords texture

# End of File
